<svg xmlns="http://www.w3.org/2000/svg" version="1.1" xmlns:xlink="http://www.w3.org/1999/xlink" width="512" height="512" x="0" y="0" viewBox="0 0 64 64" style="enable-background:new 0 0 512 512" xml:space="preserve" class=""><g><path d="m29.526 49.897.894-1.788 1.998 1-.894 1.787zM33.528 50.092l1.999-1 .894 1.788-1.999 1zM38.524 50.9l.894-1.787 1.998 1-.894 1.787z" fill="#f5b651" opacity="1" data-original="#000000" class=""></path><circle cx="18" cy="47" r="1" fill="#f5b651" opacity="1" data-original="#000000" class=""></circle><path d="m33.506 46.469 2-1 .893 1.788-1.999 1z" fill="#f5b651" opacity="1" data-original="#000000" class=""></path><path d="M63 46H43V33.62c.963 2.035 3.028 3.38 5.304 3.38a5.874 5.874 0 0 0 3.827-1.416l6.471-5.546a3.975 3.975 0 0 0 1.387-2.732 3.967 3.967 0 0 0-2.988-4.165V1h-2.414l-.293.293A11.17 11.17 0 0 0 51 9.243V12a5.01 5.01 0 0 0 4 4.899v6.245a4.005 4.005 0 0 0-1.603.819l-4.173 3.576-.019-.05C47.751 23.607 43.987 21 39.842 21h-1.537C41.139 19.008 43 15.72 43 12c0-6.065-4.935-11-11-11S21 5.935 21 12c0 3.72 1.861 7.008 4.695 9h-1.537c-4.146 0-7.909 2.607-9.364 6.489l-.019.05-4.174-3.577A3.997 3.997 0 0 0 9 23.143v-9.245a5.009 5.009 0 0 0 4-4.899V1h-2v7H9V1H7v7H5V1H3v8a5.01 5.01 0 0 0 4 4.899v9.242a3.967 3.967 0 0 0-2.988 4.165 3.97 3.97 0 0 0 1.387 2.732l6.47 5.545A5.871 5.871 0 0 0 15.696 37c2.276 0 4.341-1.346 5.304-3.38v7.994l-4.553 1.517a5.02 5.02 0 0 0-3.055 2.87H1v2h12.007c.015.863.252 1.682.661 2.4C7.791 51.525 7 52.904 7 54v4c0 1.166.894 2.653 7.865 3.814C19.451 62.579 25.536 63 32 63s12.549-.421 17.135-1.186C56.106 60.653 57 59.166 57 58v-4c0-1.56-1.96-2.658-6.32-3.531a3.145 3.145 0 0 0-2.325-1.757l-1.39-.231a6.4 6.4 0 0 1-1.525-.48H63zM53 12V9.243c0-2.112.704-4.116 2-5.744v11.33A3.006 3.006 0 0 1 53 12zM32 25.438 29.968 23h4.064zM27.365 23l3.282 3.938-2.066 2.066L27.247 23zm9.27 0h.118l-1.334 6.005-2.066-2.066zM32 3c3.525 0 6.574 2.042 8.05 5h-.222a5.787 5.787 0 0 1-4.121-1.707L35 5.585l-.707.708A5.789 5.789 0 0 1 30.172 8H23.95c1.476-2.958 4.525-5 8.05-5zm-9 9c0-.688.085-1.356.232-2h6.94A7.764 7.764 0 0 0 35 8.335 7.764 7.764 0 0 0 39.828 10h.94A8.97 8.97 0 0 1 41 12c0 4.962-4.037 9-9 9s-9-4.038-9-9zM5.184 10h5.631c-.413 1.161-1.513 2-2.815 2s-2.402-.839-2.816-2zm15.229 19.595-1.083 2.887A3.9 3.9 0 0 1 15.696 35a3.874 3.874 0 0 1-2.526-.936L6.699 28.52c-.406-.348-.652-.833-.693-1.367s.128-1.049.477-1.455c.689-.804 2.011-.906 2.819-.216l6.343 5.437 1.022-2.727A8.037 8.037 0 0 1 24.158 23h1.039l2.221 9.995L32 28.414l4.581 4.581L38.802 23h1.039a8.037 8.037 0 0 1 7.491 5.191l1.022 2.727 6.342-5.436c.811-.692 2.13-.59 2.821.216.348.405.517.921.476 1.454s-.287 1.019-.693 1.367l-6.472 5.546a3.87 3.87 0 0 1-2.524.935 3.901 3.901 0 0 1-3.634-2.518l-1.083-2.887a3.973 3.973 0 0 0-.587-1.02V26h-2v18.348A8.38 8.38 0 0 0 36.435 43h-9.819a3.572 3.572 0 0 0-3.197-2c-.141 0-.28.017-.419.034V26h-2v2.581a3.95 3.95 0 0 0-.587 1.014zM17.08 45.027l5.839-1.946a1.582 1.582 0 0 1 2.081 1.5v.81c0 .552.131 1.105.378 1.602l1.455 2.909c.109.219.167.464.167.707v.81c0 .872-.709 1.581-1.581 1.581h-.073c-.142 0-.28-.019-.416-.056l-7.688-2.097A3.047 3.047 0 0 1 15 47.913a3.04 3.04 0 0 1 2.08-2.886zM32 61c-14.679 0-22.259-2.015-23-3.076v-1.662c1.172.543 2.999 1.075 5.865 1.552C19.451 58.579 25.536 59 32 59s12.549-.421 17.135-1.186c2.866-.477 4.693-1.01 5.865-1.552v1.662C54.259 58.985 46.679 61 32 61zm0-4c-14.291 0-21.854-1.91-22.927-2.99.315-.281 1.577-1.095 6.12-1.852l-.017-.103c.461.32.977.569 1.54.722l7.687 2.097c.305.083.622.126.943.126h.073c.015 0 .028-.004.043-.004V55h22.373a3.164 3.164 0 0 0 3.073-2.44c2.854.626 3.759 1.219 4.018 1.45C53.854 55.09 46.292 57 32 57zm16.026-6.315A1.166 1.166 0 0 1 47.835 53H28.616A3.538 3.538 0 0 0 29 51.419v-.81c0-.552-.131-1.105-.378-1.602l-1.455-2.909a1.597 1.597 0 0 1-.167-.707V45h9.435c1.96 0 3.787.878 5.011 2.409a8.414 8.414 0 0 0 5.19 3.044z" fill="#f5b651" opacity="1" data-original="#000000" class=""></path><path d="M34 12c-1.654 0-3 1.346-3 3v1.881c-1.152-.281-2-1.029-2-1.881h-2c0 2.206 2.243 4 5 4s5-1.794 5-4c0-1.654-1.346-3-3-3zm-1 4.881V15a1.001 1.001 0 0 1 2 0c0 .852-.848 1.6-2 1.881zM31 35h2v2h-2zM31 39h2v2h-2zM31 31h2v2h-2z" fill="#f5b651" opacity="1" data-original="#000000" class=""></path></g></svg>