<svg xmlns="http://www.w3.org/2000/svg" version="1.1" xmlns:xlink="http://www.w3.org/1999/xlink" width="512" height="512" x="0" y="0" viewBox="0 0 64 64" style="enable-background:new 0 0 512 512" xml:space="preserve" class=""><g><path d="M50.502 46.93H23.41a1 1 0 0 0 0 2h27.093a1 1 0 0 0 0-2zM39.74 43.1v-3.359l2.58 3.91a1 1 0 0 0 1.835-.55v-6.69a1 1 0 0 0-2 0v3.359l-2.58-3.91a1 1 0 0 0-1.835.55v6.69a1 1 0 0 0 2 0zM50.502 35.41a1 1 0 0 0-1 1v4.514a1.178 1.178 0 0 1-2.354 0V36.41a1 1 0 0 0-2 0v4.514c0 1.751 1.426 3.177 3.177 3.177s3.177-1.426 3.177-3.177V36.41a1 1 0 0 0-1-1z" fill="#f5b651" opacity="1" data-original="#000000" class=""></path><path d="M10.313 46.93c-.95 0-1.84.367-2.506 1.033a3.507 3.507 0 0 0-1.034 2.497 3.544 3.544 0 0 0 3.54 3.54h1.04v2.96a4.045 4.045 0 0 0 4.04 4.04h38.92a4.045 4.045 0 0 0 4.04-4.04V7.04A4.045 4.045 0 0 0 54.313 3h-38.92a4.045 4.045 0 0 0-4.04 4.04V10h-1.04c-.95 0-1.84.367-2.506 1.033a3.539 3.539 0 0 0 2.507 6.037h1.04v5.24h-1.04c-.951 0-1.841.367-2.507 1.033a3.539 3.539 0 0 0 2.507 6.037h1.04v5.24h-1.04c-.951 0-1.841.367-2.507 1.033a3.507 3.507 0 0 0-1.033 2.497 3.544 3.544 0 0 0 3.54 3.54h1.04v5.24h-1.04zm3.04-39.89c0-1.125.916-2.04 2.04-2.04h38.92c1.125 0 2.04.915 2.04 2.04v49.92c0 1.125-.915 2.04-2.04 2.04h-38.92a2.042 2.042 0 0 1-2.04-2.04V54h1.04c.95 0 1.841-.367 2.507-1.033a3.539 3.539 0 0 0-2.507-6.037h-1.04v-5.24h1.04c.951 0 1.841-.367 2.507-1.033a3.539 3.539 0 0 0-2.507-6.037h-1.04v-5.24h1.04c.951 0 1.841-.367 2.507-1.033a3.507 3.507 0 0 0 1.034-2.497 3.544 3.544 0 0 0-3.54-3.54h-1.04v-5.24h1.04c.95 0 1.84-.367 2.506-1.033a3.507 3.507 0 0 0 1.034-2.497 3.544 3.544 0 0 0-3.54-3.54h-1.04V7.04zm-3.04 8.03a1.537 1.537 0 0 1-1.092-2.623A1.532 1.532 0 0 1 10.314 12h4.08c.849 0 1.54.69 1.54 1.54 0 .41-.159.794-.448 1.083a1.533 1.533 0 0 1-1.092.447h-4.08zm0 12.31a1.537 1.537 0 0 1-1.092-2.623 1.533 1.533 0 0 1 1.093-.447h4.08c.849 0 1.54.69 1.54 1.54 0 .41-.159.794-.448 1.083a1.533 1.533 0 0 1-1.092.447h-4.08zm0 12.31c-.849 0-1.54-.69-1.54-1.54 0-.41.16-.794.448-1.083a1.533 1.533 0 0 1 1.093-.447h4.08a1.537 1.537 0 0 1 1.092 2.623 1.533 1.533 0 0 1-1.092.447h-4.08zm4.08 9.24a1.537 1.537 0 0 1 1.093 2.623 1.533 1.533 0 0 1-1.092.447h-4.08c-.85 0-1.54-.69-1.54-1.54 0-.41.158-.794.447-1.083a1.533 1.533 0 0 1 1.093-.447h4.08zM23.195 33h27.523a1 1 0 0 0 0-2h-.97c-.424-5.335-4.201-9.729-9.222-11.083v-1.355c0-1.968-1.601-3.57-3.57-3.57s-3.57 1.602-3.57 3.57v1.355c-5.02 1.354-8.796 5.748-9.22 11.083h-.97a1 1 0 0 0 0 2zm12.192-14.438c0-.865.704-1.57 1.57-1.57s1.57.705 1.57 1.57v.974a12.61 12.61 0 0 0-1.256-.063h-.629c-.424 0-.842.022-1.255.063v-.974zm1.255 2.91h.63c5.467 0 9.975 4.19 10.48 9.528h-21.59c.505-5.337 5.013-9.527 10.48-9.527zm-8.548 21.629v-3.97l-1.08 1.272c-.38.447-1.144.447-1.524 0l-1.08-1.272v3.97a1 1 0 0 1-2 0v-6.69a1 1 0 0 1 1.762-.648l2.08 2.448 2.08-2.448a1 1 0 0 1 1.762.647v6.69a1 1 0 0 1-2 0zm5.49-5.69v1.344h2.092a1 1 0 0 1 0 2h-2.093v1.346h2.093a1 1 0 0 1 0 2h-3.093a1 1 0 0 1-1-1v-6.69a1 1 0 0 1 1-1h3.093a1 1 0 0 1 0 2z" fill="#f5b651" opacity="1" data-original="#000000" class=""></path></g></svg>