<svg xmlns="http://www.w3.org/2000/svg" version="1.1" xmlns:xlink="http://www.w3.org/1999/xlink" width="512" height="512" x="0" y="0" viewBox="0 0 512 512" style="enable-background:new 0 0 512 512" xml:space="preserve" class=""><g><path d="m449.178 452.653-4.339-4.339c-1.201-1.2-1.473-3.078-.675-4.673 6.984-13.964 10.525-30.229 10.525-48.346 0-33.091-11.896-77.501-32.636-121.844-18.852-40.304-42.925-76.617-68.702-103.874 11.907-3.568 20.611-14.621 20.611-27.674 0-11.84-7.164-22.035-17.382-26.49l19.254-29.643c.136-.21.262-.427.377-.649 4.191-8.132 4.312-17.508.329-25.723-4.364-9.003-12.837-15.328-23.247-17.354l-12.636-2.458c1.985-9.076.064-18.412-5.48-26.068C328.954 4.928 319.301 0 308.692 0h-50.343c-4.143 0-7.5 3.357-7.5 7.5s3.357 7.5 7.5 7.5h50.343c5.743 0 10.969 2.668 14.338 7.318 3.369 4.651 4.274 10.449 2.483 15.906l-24.546 74.793H273.43l6.303-23.281a7.5 7.5 0 0 0-14.478-3.92l-7.364 27.201H245.37l-7.364-27.201a7.5 7.5 0 0 0-9.199-5.279 7.499 7.499 0 0 0-5.279 9.199l6.303 23.281h-18.796l-24.546-74.793c-1.791-5.457-.886-11.254 2.482-15.905C192.34 17.668 197.567 15 203.31 15h25.054c4.143 0 7.5-3.357 7.5-7.5s-3.357-7.5-7.5-7.5H203.31c-10.609 0-20.264 4.928-26.487 13.521-5.545 7.656-7.465 16.993-5.479 26.068l-12.637 2.458c-10.409 2.025-18.883 8.351-23.247 17.354-3.981 8.215-3.861 17.59.331 25.723.114.223.24.438.376.648l18.259 28.111c-12.55 3.142-21.874 14.512-21.874 28.021 0 14.675 11.003 26.821 25.19 28.643-25.458 27.172-49.208 63.142-67.841 103.007C69.188 317.86 57.31 362.233 57.31 395.296c0 18.116 3.541 34.382 10.525 48.346.798 1.595.526 3.473-.674 4.673l-4.341 4.34c-13.554 13.555-13.553 35.609.001 49.163C69.387 508.384 78.118 512 87.404 512c9.285 0 18.016-3.616 24.582-10.182l10.116-10.076C153.916 505.563 196.463 512 255.999 512c29.418 0 54.28-1.563 76.008-4.777 4.098-.605 6.928-4.419 6.321-8.517s-4.416-6.938-8.517-6.321C308.819 495.49 284.674 497 255.999 497c-57.409 0-98.058-6.042-127.921-19.016-5.703-2.477-12.225-1.246-16.611 3.138l-10.089 10.089c-7.705 7.706-20.243 7.708-27.95.001-7.706-7.707-7.706-20.245-.001-27.951l4.341-4.339c5.773-5.774 7.174-14.611 3.483-21.989-5.934-11.862-8.941-25.871-8.941-41.637 0-30.944 11.363-73.002 31.177-115.39 20.406-43.655 47.04-82.33 75.106-109.114h35.68l-5.846 7.133a7.5 7.5 0 1 0 11.602 9.508l13.639-16.641h35.924l13.641 16.642a7.486 7.486 0 0 0 5.805 2.745 7.502 7.502 0 0 0 5.797-12.255l-5.846-7.132h44.419c28.044 26.763 54.658 65.393 75.062 109.016 19.842 42.423 31.223 84.517 31.223 115.488 0 15.766-3.008 29.774-8.941 41.637-3.69 7.378-2.29 16.215 3.483 21.989l4.339 4.339c7.706 7.706 7.706 20.244 0 27.951A19.634 19.634 0 0 1 424.599 497a19.636 19.636 0 0 1-13.975-5.789l-10.089-10.089c-4.386-4.384-10.908-5.615-16.611-3.138-7.467 3.244-15.859 6.109-24.945 8.518a7.5 7.5 0 0 0 3.842 14.5c9.813-2.601 18.925-5.717 27.107-9.272l10.089 10.089C406.58 508.384 415.311 512 424.596 512c9.286 0 18.017-3.616 24.582-10.182 13.555-13.554 13.555-35.61 0-49.165zM336.127 53.988l14.303 2.782c5.73 1.114 10.328 4.458 12.613 9.172 1.882 3.883 1.874 8.133-.013 12.006l-22.78 35.069h-23.497zM148.955 65.943c2.285-4.715 6.883-8.059 12.613-9.173l14.304-2.782 19.373 59.03h-23.498l-22.779-35.069c-1.887-3.874-1.894-8.124-.013-12.006zm-1.406 75.961c0-7.657 6.229-13.887 13.887-13.887h183.641c7.657 0 13.887 6.229 13.887 13.887s-6.229 13.888-13.887 13.888H161.436c-7.657 0-13.887-6.23-13.887-13.888z" fill="#f5b651" opacity="1" data-original="#000000" class=""></path><path d="M255.999 222.958c-55.995 0-101.55 45.556-101.55 101.551s45.555 101.551 101.55 101.551S357.55 380.504 357.55 324.509s-45.555-101.551-101.551-101.551zm0 188.102c-47.724 0-86.55-38.826-86.55-86.551s38.826-86.551 86.55-86.551c47.725 0 86.551 38.826 86.551 86.551s-38.826 86.551-86.551 86.551z" fill="#f5b651" opacity="1" data-original="#000000" class=""></path><path d="M268.55 316.878a296.123 296.123 0 0 1-5.666-2.061v-31.809c5.955 1.043 9.846 3.599 10.169 3.817a7.497 7.497 0 0 0 10.407-1.848 7.5 7.5 0 0 0-1.818-10.449c-.443-.313-7.771-5.351-18.758-6.647v-5.82c0-4.143-3.357-7.5-7.5-7.5s-7.5 3.357-7.5 7.5v6.675a44.19 44.19 0 0 0-2.675.706c-10.064 3.032-17.583 11.638-19.623 22.46-1.863 9.888 1.317 19.434 8.302 24.912 3.571 2.801 7.989 5.368 13.996 8.065v40.179c-5.07-.453-8.444-1.801-14.07-5.482a7.5 7.5 0 0 0-10.382 2.171 7.5 7.5 0 0 0 2.171 10.382c8.696 5.688 14.699 7.475 22.281 7.968v6.859c0 4.143 3.357 7.5 7.5 7.5s7.5-3.357 7.5-7.5v-7.484c15.416-3.255 24.428-16.068 26.442-28.047 2.623-15.598-5.533-29.158-20.776-34.547zm-25.404-11.866c-2.522-1.979-3.629-6.033-2.819-10.331.702-3.72 3.053-8.143 7.558-10.237v23.674c-1.766-1.001-3.373-2.035-4.739-3.106zm31.388 43.926c-.986 5.869-4.942 12.092-11.649 14.855v-33.012l.666.239c12.258 4.334 11.505 14.811 10.983 17.918z" fill="#f5b651" opacity="1" data-original="#000000" class=""></path></g></svg>