<svg xmlns="http://www.w3.org/2000/svg" version="1.1" xmlns:xlink="http://www.w3.org/1999/xlink" width="512" height="512" x="0" y="0" viewBox="0 0 64 64" style="enable-background:new 0 0 512 512" xml:space="preserve" class=""><g><g data-name="Layer 15"><path d="M61.717 46.937a2.848 2.848 0 0 0-.26-.23A3 3 0 0 0 59 41.984h-.17a27.479 27.479 0 0 0 .17-3 26.294 26.294 0 0 0-.57-5.5l4.18 1.792a1 1 0 0 0 1.32-1.291L59.907 23.86a.99.99 0 0 0 .23-1.011l-1.81-5.434 5.12-2.561a1 1 0 0 0 0-1.782l-5.12-2.562 1.81-5.434a1 1 0 0 0-1.26-1.261l-5.43 1.812L50.888.5a1.039 1.039 0 0 0-1.78 0l-2.56 5.124-5.43-1.812a1 1 0 0 0-1.26 1.261l1.81 5.434-4.08 2.042c-.52-.12-1.06-.21-1.59-.29V7.878a4 4 0 1 0-8 0v4.384A27.04 27.04 0 0 0 5 38.981a27.479 27.479 0 0 0 .17 3H5a3.01 3.01 0 0 0-3 3 2.781 2.781 0 0 0 .18 1H1a1 1 0 0 0-1 1V63a1 1 0 0 0 1 1h18a1 1 0 0 0 1-1h5a1 1 0 0 0 .92-.61A7.589 7.589 0 0 0 30.589 64h19.249a3.179 3.179 0 0 0 2.2-.881l10.83-10.227A3.071 3.071 0 0 0 64 50.65a3.191 3.191 0 0 0-.94-2.382Zm-.54-14.46-3.17-1.351a.893.893 0 0 0-.2-.06.985.985 0 0 0-1.08.52l-.54 1.071-.97 1.891-3.5-8.8.64-1.271 1-1.992.09-.19L57.7 23.72ZM42.3 23.72l4.25-1.421 1.73 3.453-3.5 8.8-1.51-2.962a.99.99 0 0 0-.89-.54.909.909 0 0 0-.39.08l-3.17 1.351Zm1.04-11.809a1 1 0 0 0 .5-1.211l-1.45-4.353L46.738 7.8a1 1 0 0 0 1.21-.5L50 3.2l2.049 4.1a1 1 0 0 0 1.21.5l4.35-1.451-1.452 4.351a1 1 0 0 0 .5 1.211l4.1 2.052-4.1 2.051a1 1 0 0 0-.5 1.211l.28.841 1.17 3.513-.88-.291-1.81-.61-1.66-.551a1 1 0 0 0-1.21.5l-.089.19-.12.24-.4.791-.45.89-.26.521L50 24.731l-.73-1.471-.71-1.411-.4-.791-.21-.43a1 1 0 0 0-.89-.551 1.127 1.127 0 0 0-.32.05l-1.66.551-1.81.61-.88.291 1.17-3.513.28-.841a1.108 1.108 0 0 0 .05-.25 1.006 1.006 0 0 0-.55-.961l-4.1-2.051 1.25-.621ZM30 7.878a2 2 0 1 1 4 0v4.073c-.67-.05-1.34-.07-2-.07s-1.329.02-2 .07ZM7 38.981a25.03 25.03 0 0 1 25-25.018 23.7 23.7 0 0 1 4.07.34.905.905 0 0 0 .48.551l5.12 2.561-1.81 5.434a.99.99 0 0 0 .23 1.011l-4.02 10.118a1 1 0 0 0 1.32 1.291l4.53-1.942L44 37.43a1 1 0 0 0 .89.551h.05a1 1 0 0 0 .88-.631l3.76-9.477a.932.932 0 0 0 .84 0l3.759 9.477a1 1 0 0 0 .88.631h.05A1 1 0 0 0 56 37.43l.8-1.571a24.7 24.7 0 0 1 .2 3.122 25.208 25.208 0 0 1-.18 3H7.18a25.208 25.208 0 0 1-.18-3Zm-3 6a1 1 0 0 1 1-1h54a1 1 0 0 1 0 2H5a1 1 0 0 1-1-.995Zm51.907 3-4.329 3.783a3.249 3.249 0 0 0-3.1-2.352h-11.13a1.2 1.2 0 0 1-.97-.5 8.331 8.331 0 0 0-.83-.931ZM2 62V47.988h16V62Zm22-1h-4V48.989h4V61Zm37.538-9.607-10.88 10.285a1.221 1.221 0 0 1-.82.321H30.589A5.672 5.672 0 0 1 26 59.627V50.36a5.672 5.672 0 0 1 4.59-2.372 5.222 5.222 0 0 1 4.21 2.152 3.2 3.2 0 0 0 2.55 1.281h11.13a1.254 1.254 0 0 1 1.23 1.281v1.15a1.254 1.254 0 0 1-1.23 1.281H37.3v2h11.18a3.258 3.258 0 0 0 3.2-2.8l6.84-5.975a1.286 1.286 0 0 1 1.8 0l1.33 1.331a1.2 1.2 0 0 1 .35.871 1.105 1.105 0 0 1-.463.831Z" fill="#f5b651" opacity="1" data-original="#000000" class=""></path><path d="M13.999 49.99h2v2.001h-2zM10 49.99h2v2.001h-2zM50 7.96a6 6 0 0 0-6 6 4.909 4.909 0 0 0 .07.86 5.822 5.822 0 0 0 1.45 3.14 6.331 6.331 0 0 0 1.68 1.32c.15.08.3.15.46.22a5.589 5.589 0 0 0 1.36.38 5.381 5.381 0 0 0 1.96 0 .106.106 0 0 0 .08-.01 5.681 5.681 0 0 0 1.74-.59A6.008 6.008 0 0 0 50 7.96Zm3.98 6.41a3.994 3.994 0 0 1-7.92.27 3.822 3.822 0 0 1-.06-.68c0-.12.01-.25.02-.37a4 4 0 0 1 7.96 0c.01.12.02.25.02.37 0 .14-.01.27-.02.41Z" fill="#f5b651" opacity="1" data-original="#000000" class=""></path></g></g></svg>